<?xml version="1.0" encoding="UTF-8" standalone="no"?>
<!-- Created with Inkscape (http://www.inkscape.org/) -->

<svg
   xmlns:dc="http://purl.org/dc/elements/1.1/"
   xmlns:cc="http://creativecommons.org/ns#"
   xmlns:rdf="http://www.w3.org/1999/02/22-rdf-syntax-ns#"
   xmlns:svg="http://www.w3.org/2000/svg"
   xmlns="http://www.w3.org/2000/svg"
   xmlns:sodipodi="http://sodipodi.sourceforge.net/DTD/sodipodi-0.dtd"
   xmlns:inkscape="http://www.inkscape.org/namespaces/inkscape"
   width="2000"
   height="435.86423"
   viewBox="0 0 529.16665 115.32241"
   version="1.1"
   id="svg8"
   inkscape:version="0.92.4 (5da689c313, 2019-01-14)"
   sodipodi:docname="twitter.svg">
  <defs
     id="defs2" />
  <sodipodi:namedview
     id="base"
     pagecolor="#ffffff"
     bordercolor="#666666"
     borderopacity="1.0"
     inkscape:pageopacity="0.0"
     inkscape:pageshadow="2"
     inkscape:zoom="0.35"
     inkscape:cx="365.71429"
     inkscape:cy="132.21782"
     inkscape:document-units="mm"
     inkscape:current-layer="layer1"
     showgrid="false"
     units="px"
     inkscape:window-width="1920"
     inkscape:window-height="1017"
     inkscape:window-x="1912"
     inkscape:window-y="114"
     inkscape:window-maximized="1"
     fit-margin-top="0"
     fit-margin-left="0"
     fit-margin-right="0"
     fit-margin-bottom="0" />
  <metadata
     id="metadata5">
    <rdf:RDF>
      <cc:Work
         rdf:about="">
        <dc:format>image/svg+xml</dc:format>
        <dc:type
           rdf:resource="http://purl.org/dc/dcmitype/StillImage" />
        <dc:title></dc:title>
      </cc:Work>
    </rdf:RDF>
  </metadata>
  <g
     inkscape:label="Ebene 1"
     inkscape:groupmode="layer"
     id="layer1"
     transform="translate(2.6755694e-6,25.244551)">
    <g
       transform="matrix(3.8278756,0,0,-3.8278756,12.934513,83.222885)"
       id="g4886">
      <path
         inkscape:connector-curvature="0"
         id="path266"
        
         d="m 4.4589676,0.89179351 c 13.9900004,0 21.6400004,11.59000049 21.6400004,21.63900049 0,0.329 -0.007,0.657 -0.023,0.983 1.486,1.072 2.777,2.413 3.795,3.938 -1.362,-0.605 -2.83,-1.014 -4.367,-1.199 1.57,0.943 2.775,2.433 3.344,4.209 -1.471,-0.873 -3.098,-1.506 -4.829,-1.846 -1.388,1.477 -3.366,2.403 -5.551,2.403 -4.201,0 -7.608,-3.407 -7.608,-7.606 0,-0.596 0.068,-1.176 0.199,-1.733 -6.3210004,0.316 -11.92600045,3.344 -15.6780004,7.946 -0.652,-1.125 -1.029,-2.43 -1.029,-3.823 0,-2.639 1.342,-4.969 3.384,-6.331 -1.248,0.039 -2.42,0.382 -3.445,0.952 v -0.097 c 0,-3.684 2.621,-6.759 6.10099995,-7.456 -0.638,-0.174 -1.312,-0.268 -2.00499995,-0.268 -0.491,0 -0.967,0.049 -1.43,0.138 0.969,-3.0220005 3.77499995,-5.2210005 7.105,-5.2840005 -2.603,-2.039 -5.883,-3.254 -9.445,-3.254 -0.615,0 -1.221,0.035 -1.815,0.105 3.366,-2.157 7.36199995,-3.41599999 11.657,-3.41599999"
         transform="translate(104.9903,-2.6825972)" />
      <path
         inkscape:connector-curvature="0"
         id="path270"
       
         d="m 4.4589676,0.89179351 c -4.33000005,0 -7.838,3.50899999 -7.838,7.83799999 l 0.025,8.9900005 c 0,1.238 1.005,2.243 2.245,2.243 1.23799995,0 2.244,-1.005 2.244,-2.243 v -3.365 h 5.609 c 1.239,0 2.243,-1.005 2.243,-2.244 0,-1.24 -1.004,-2.2440005 -2.243,-2.2440005 h -5.609 v -1.13 c 0,-1.856 1.502,-3.358 3.356,-3.358 h 3.374 c 1.24,0 2.2440004,-1.005 2.2440004,-2.243 0,-1.24 -1.0040004,-2.24399999 -2.2440004,-2.24399999 z m 45.4770004,0 c 1.238,0 2.244,1.00399999 2.244,2.24399999 0,1.238 -1.006,2.243 -2.244,2.243 h -1.131 c -1.854,0 -3.357,1.502 -3.357,3.358 v 1.13 h 3.365 c 1.24,0 2.244,1.0040005 2.244,2.2440005 0,1.239 -1.004,2.244 -2.244,2.244 h -3.365 v 3.365 c 0,1.238 -1.005,2.243 -2.244,2.243 -1.239,0 -2.243,-1.005 -2.243,-2.243 V 8.7297935 c 0,-4.329 3.482,-7.83799999 7.811,-7.83799999 z m 11.781,0 c 1.236,0 2.242,1.00399999 2.242,2.24399999 0,1.238 -1.006,2.243 -2.242,2.243 h -1.133 c -1.854,0 -3.356,1.502 -3.356,3.358 v 1.13 h 3.364 c 1.24,0 2.246,1.0040005 2.246,2.2440005 0,1.239 -1.006,2.244 -2.246,2.244 h -3.364 v 3.365 c 0,1.238 -1.005,2.243 -2.245,2.243 -1.239,0 -2.243,-1.005 -2.243,-2.243 V 8.7297935 c 0,-4.329 3.483,-7.83799999 7.813,-7.83799999 z m 17.961,2.24399999 c 0,-1.24 1.004,-2.24399999 2.244,-2.24399999 1.239,0 2.244,1.00399999 2.244,2.24399999 l -0.037,4.486 c 0,1.24 1.006,2.245 2.246,2.245 h 3.365 c 1.239,0 2.242,1.0040005 2.242,2.2440005 0,1.239 -1.003,2.244 -2.242,2.244 h -3.365 c -3.719,0 -6.697,-3.015 -6.697,-6.7330005 z m -48.814,11.2190005 c -1.239,0 -2.244,-1.005 -2.244,-2.244 V 7.6217935 c 0,-1.239 -1.005,-2.243 -2.243,-2.243 -1.24,0 -2.244,1.004 -2.244,2.243 v 4.4890005 c 0,1.239 -1.004,2.244 -2.244,2.244 -1.24,0 -2.243,-1.005 -2.243,-2.244 V 7.6217935 c 0,-1.239 -1.005,-2.243 -2.245,-2.243 -1.239,0 -2.244,1.004 -2.244,2.243 v 4.4890005 c 0,1.239 -1.004,2.244 -2.243,2.244 -1.24,0 -2.244,-1.005 -2.244,-2.244 V 7.6217935 c 0,-3.716 3.014,-6.72999999 6.731,-6.72999999 1.728,0 3.296,0.65499999 4.488,1.72399999 1.191,-1.069 2.761,-1.72399999 4.488,-1.72399999 3.717,0 6.73,3.01399999 6.73,6.72999999 v 4.4890005 c 0,1.239 -1.003,2.244 -2.243,2.244 m 6.17,0 c -1.239,0 -2.243,-1.005 -2.243,-2.244 V 3.1357935 c 0,-1.24 1.004,-2.24399999 2.243,-2.24399999 1.24,0 2.244,1.00399999 2.244,2.24399999 v 8.9750005 c 0,1.239 -1.004,2.244 -2.244,2.244 m 0,1.121 c 1.24,0 2.244,1.005 2.244,2.244 0,1.238 -1.004,2.243 -2.244,2.243 -1.239,0 -2.243,-1.005 -2.243,-2.243 0,-1.239 1.004,-2.244 2.243,-2.244 m 40.95,-6.7310005 c 0,3.0970005 -3.013,5.6100005 -6.732,5.6100005 -3.718,0 -6.732,-2.437 -6.732,-6.1700005 0,-4.257 3.013,-7.29299999 6.73,-7.29299999 h 4.781 c 1.085,0 1.964,0.87899999 1.964,1.96399999 0,1.084 -0.879,1.963 -1.964,1.963 h -4.781 c -1.047,0 -1.928,0.718 -2.175,1.689 0,0 6.544,-0.001 7.407,-0.001 1.171,0 1.5,1.453 1.5,2.238 z m -8.976,0.561 c 0,1.0320005 1.006,1.8690005 2.244,1.8690005 1.24,0 2.243,-0.837 2.243,-1.8690005 z" />
    </g>
  </g>
</svg>
